<mxfile host="app.diagrams.net" modified="2024-04-22T23:39:03.663Z" agent="Mozilla/5.0 (Windows NT 10.0; Win64; x64) AppleWebKit/537.36 (KHTML, like Gecko) Chrome/124.0.0.0 Safari/537.36" etag="xYDjoz-zAzCDf_ZQL0BT" version="24.2.8" type="device">
  <diagram name="Página-1" id="YVe-Dv3D61gkd7Om_35n">
    <mxGraphModel dx="949" dy="983" grid="1" gridSize="10" guides="1" tooltips="1" connect="1" arrows="1" fold="1" page="1" pageScale="1" pageWidth="827" pageHeight="1169" math="0" shadow="0">
      <root>
        <mxCell id="0" />
        <mxCell id="1" parent="0" />
        <mxCell id="kuO836XL4rI_KhDC54l--4" style="edgeStyle=orthogonalEdgeStyle;rounded=0;orthogonalLoop=1;jettySize=auto;html=1;exitX=1;exitY=0.25;exitDx=0;exitDy=0;entryX=0;entryY=0.25;entryDx=0;entryDy=0;" edge="1" parent="1" source="kuO836XL4rI_KhDC54l--2" target="kuO836XL4rI_KhDC54l--3">
          <mxGeometry relative="1" as="geometry" />
        </mxCell>
        <mxCell id="kuO836XL4rI_KhDC54l--5" value="&lt;div&gt;1. Envia a solicitação&lt;/div&gt;&lt;div&gt;de comando do sensor&lt;/div&gt;" style="edgeLabel;html=1;align=center;verticalAlign=middle;resizable=0;points=[];" vertex="1" connectable="0" parent="kuO836XL4rI_KhDC54l--4">
          <mxGeometry x="0.0046" relative="1" as="geometry">
            <mxPoint x="4" y="-20" as="offset" />
          </mxGeometry>
        </mxCell>
        <mxCell id="kuO836XL4rI_KhDC54l--2" value="Cliente" style="whiteSpace=wrap;html=1;aspect=fixed;" vertex="1" parent="1">
          <mxGeometry x="50" y="220" width="80" height="80" as="geometry" />
        </mxCell>
        <mxCell id="kuO836XL4rI_KhDC54l--6" style="edgeStyle=orthogonalEdgeStyle;rounded=0;orthogonalLoop=1;jettySize=auto;html=1;exitX=0;exitY=0.75;exitDx=0;exitDy=0;entryX=1;entryY=0.75;entryDx=0;entryDy=0;" edge="1" parent="1" source="kuO836XL4rI_KhDC54l--3" target="kuO836XL4rI_KhDC54l--2">
          <mxGeometry relative="1" as="geometry" />
        </mxCell>
        <mxCell id="kuO836XL4rI_KhDC54l--7" value="5. Retorna o resultado&lt;div&gt;do comando&lt;/div&gt;" style="edgeLabel;html=1;align=center;verticalAlign=middle;resizable=0;points=[];" vertex="1" connectable="0" parent="kuO836XL4rI_KhDC54l--6">
          <mxGeometry x="0.0462" y="-2" relative="1" as="geometry">
            <mxPoint x="9" y="22" as="offset" />
          </mxGeometry>
        </mxCell>
        <mxCell id="kuO836XL4rI_KhDC54l--9" style="edgeStyle=orthogonalEdgeStyle;rounded=0;orthogonalLoop=1;jettySize=auto;html=1;exitX=1;exitY=0.25;exitDx=0;exitDy=0;entryX=0;entryY=0.25;entryDx=0;entryDy=0;" edge="1" parent="1" source="kuO836XL4rI_KhDC54l--3" target="kuO836XL4rI_KhDC54l--8">
          <mxGeometry relative="1" as="geometry" />
        </mxCell>
        <mxCell id="kuO836XL4rI_KhDC54l--10" value="3. Envia o&lt;div&gt;comando (tcp)&lt;/div&gt;" style="edgeLabel;html=1;align=center;verticalAlign=middle;resizable=0;points=[];" vertex="1" connectable="0" parent="kuO836XL4rI_KhDC54l--9">
          <mxGeometry x="-0.1231" relative="1" as="geometry">
            <mxPoint x="13" y="-20" as="offset" />
          </mxGeometry>
        </mxCell>
        <mxCell id="kuO836XL4rI_KhDC54l--3" value="Broker" style="whiteSpace=wrap;html=1;aspect=fixed;" vertex="1" parent="1">
          <mxGeometry x="300" y="220" width="80" height="80" as="geometry" />
        </mxCell>
        <mxCell id="kuO836XL4rI_KhDC54l--11" style="edgeStyle=orthogonalEdgeStyle;rounded=0;orthogonalLoop=1;jettySize=auto;html=1;exitX=0;exitY=0.75;exitDx=0;exitDy=0;entryX=1;entryY=0.75;entryDx=0;entryDy=0;" edge="1" parent="1" source="kuO836XL4rI_KhDC54l--8" target="kuO836XL4rI_KhDC54l--3">
          <mxGeometry relative="1" as="geometry" />
        </mxCell>
        <mxCell id="kuO836XL4rI_KhDC54l--12" value="4. Retorna&lt;div&gt;o resultado (tcp)&lt;/div&gt;" style="edgeLabel;html=1;align=center;verticalAlign=middle;resizable=0;points=[];" vertex="1" connectable="0" parent="kuO836XL4rI_KhDC54l--11">
          <mxGeometry x="0.1487" y="2" relative="1" as="geometry">
            <mxPoint x="15" y="18" as="offset" />
          </mxGeometry>
        </mxCell>
        <mxCell id="kuO836XL4rI_KhDC54l--8" value="Sensor" style="whiteSpace=wrap;html=1;aspect=fixed;" vertex="1" parent="1">
          <mxGeometry x="510" y="220" width="80" height="80" as="geometry" />
        </mxCell>
        <mxCell id="kuO836XL4rI_KhDC54l--21" value="Broker" style="whiteSpace=wrap;html=1;aspect=fixed;" vertex="1" parent="1">
          <mxGeometry x="50" y="420" width="80" height="80" as="geometry" />
        </mxCell>
        <mxCell id="kuO836XL4rI_KhDC54l--26" style="edgeStyle=orthogonalEdgeStyle;rounded=0;orthogonalLoop=1;jettySize=auto;html=1;exitX=0;exitY=0.25;exitDx=0;exitDy=0;entryX=1;entryY=0.25;entryDx=0;entryDy=0;" edge="1" parent="1" source="kuO836XL4rI_KhDC54l--24" target="kuO836XL4rI_KhDC54l--21">
          <mxGeometry relative="1" as="geometry" />
        </mxCell>
        <mxCell id="kuO836XL4rI_KhDC54l--27" value="1. Envia o dado (udp)" style="edgeLabel;html=1;align=center;verticalAlign=middle;resizable=0;points=[];" vertex="1" connectable="0" parent="kuO836XL4rI_KhDC54l--26">
          <mxGeometry x="0.0463" y="1" relative="1" as="geometry">
            <mxPoint x="3" y="-21" as="offset" />
          </mxGeometry>
        </mxCell>
        <mxCell id="kuO836XL4rI_KhDC54l--24" value="Sensor" style="whiteSpace=wrap;html=1;aspect=fixed;" vertex="1" parent="1">
          <mxGeometry x="270" y="420" width="80" height="80" as="geometry" />
        </mxCell>
        <mxCell id="kuO836XL4rI_KhDC54l--25" value="Envio de comandos" style="text;html=1;align=center;verticalAlign=middle;resizable=0;points=[];autosize=1;strokeColor=none;fillColor=none;" vertex="1" parent="1">
          <mxGeometry x="40" y="140" width="130" height="30" as="geometry" />
        </mxCell>
        <mxCell id="kuO836XL4rI_KhDC54l--28" style="edgeStyle=orthogonalEdgeStyle;rounded=0;orthogonalLoop=1;jettySize=auto;html=1;exitX=0;exitY=0.25;exitDx=0;exitDy=0;entryX=1;entryY=0.25;entryDx=0;entryDy=0;" edge="1" parent="1">
          <mxGeometry relative="1" as="geometry">
            <mxPoint x="270" y="480" as="sourcePoint" />
            <mxPoint x="130" y="480" as="targetPoint" />
          </mxGeometry>
        </mxCell>
        <mxCell id="kuO836XL4rI_KhDC54l--29" value="2. Envia o dado (udp)" style="edgeLabel;html=1;align=center;verticalAlign=middle;resizable=0;points=[];" vertex="1" connectable="0" parent="kuO836XL4rI_KhDC54l--28">
          <mxGeometry x="0.0463" y="1" relative="1" as="geometry">
            <mxPoint x="3" y="-21" as="offset" />
          </mxGeometry>
        </mxCell>
        <mxCell id="kuO836XL4rI_KhDC54l--30" value="Envio de comandos Sensor -&amp;gt; Broker" style="text;html=1;align=center;verticalAlign=middle;resizable=0;points=[];autosize=1;strokeColor=none;fillColor=none;" vertex="1" parent="1">
          <mxGeometry x="40" y="360" width="220" height="30" as="geometry" />
        </mxCell>
        <mxCell id="kuO836XL4rI_KhDC54l--35" style="edgeStyle=orthogonalEdgeStyle;rounded=0;orthogonalLoop=1;jettySize=auto;html=1;exitX=1;exitY=0.25;exitDx=0;exitDy=0;entryX=0;entryY=0.25;entryDx=0;entryDy=0;" edge="1" parent="1" source="kuO836XL4rI_KhDC54l--33" target="kuO836XL4rI_KhDC54l--34">
          <mxGeometry relative="1" as="geometry" />
        </mxCell>
        <mxCell id="kuO836XL4rI_KhDC54l--36" value="1. Pede os dados&lt;div&gt;do Sensor X&lt;/div&gt;" style="edgeLabel;html=1;align=center;verticalAlign=middle;resizable=0;points=[];" vertex="1" connectable="0" parent="kuO836XL4rI_KhDC54l--35">
          <mxGeometry x="-0.0073" y="-3" relative="1" as="geometry">
            <mxPoint x="-5" y="-23" as="offset" />
          </mxGeometry>
        </mxCell>
        <mxCell id="kuO836XL4rI_KhDC54l--33" value="Cliente" style="whiteSpace=wrap;html=1;aspect=fixed;" vertex="1" parent="1">
          <mxGeometry x="50" y="585" width="80" height="80" as="geometry" />
        </mxCell>
        <mxCell id="kuO836XL4rI_KhDC54l--37" style="edgeStyle=orthogonalEdgeStyle;rounded=0;orthogonalLoop=1;jettySize=auto;html=1;exitX=0;exitY=0.75;exitDx=0;exitDy=0;" edge="1" parent="1" source="kuO836XL4rI_KhDC54l--34">
          <mxGeometry relative="1" as="geometry">
            <mxPoint x="130" y="644.6666666666665" as="targetPoint" />
          </mxGeometry>
        </mxCell>
        <mxCell id="kuO836XL4rI_KhDC54l--38" value="2. Retorna os últimos&lt;div&gt;20 dados enviados,&lt;/div&gt;&lt;div&gt;caso exista&lt;/div&gt;" style="edgeLabel;html=1;align=center;verticalAlign=middle;resizable=0;points=[];" vertex="1" connectable="0" parent="kuO836XL4rI_KhDC54l--37">
          <mxGeometry x="0.002" y="2" relative="1" as="geometry">
            <mxPoint y="33" as="offset" />
          </mxGeometry>
        </mxCell>
        <mxCell id="kuO836XL4rI_KhDC54l--34" value="Broker" style="whiteSpace=wrap;html=1;aspect=fixed;" vertex="1" parent="1">
          <mxGeometry x="300" y="585" width="80" height="80" as="geometry" />
        </mxCell>
        <mxCell id="kuO836XL4rI_KhDC54l--39" value="Pedido de dados do sensor X" style="text;html=1;align=center;verticalAlign=middle;resizable=0;points=[];autosize=1;strokeColor=none;fillColor=none;" vertex="1" parent="1">
          <mxGeometry x="40" y="540" width="180" height="30" as="geometry" />
        </mxCell>
      </root>
    </mxGraphModel>
  </diagram>
</mxfile>
